<svg width="25" height="7" viewBox="0 0 25 7" fill="none" xmlns="http://www.w3.org/2000/svg">
<path d="M2.744 3.176H3.392C3.57867 3.176 3.71467 3.2 3.8 3.248C3.88533 3.29067 3.94133 3.35733 3.968 3.448C4 3.53867 4.016 3.66133 4.016 3.816C4.016 3.96533 4.00267 4.08533 3.976 4.176C3.94933 4.26667 3.904 4.33067 3.84 4.368C3.744 4.416 3.608 4.44 3.432 4.44H2.744V5.088C2.744 5.27467 2.72 5.41067 2.672 5.496C2.62933 5.58133 2.56267 5.64 2.472 5.672C2.38133 5.69867 2.25867 5.712 2.104 5.712C1.95467 5.712 1.83467 5.69867 1.744 5.672C1.65333 5.64 1.58933 5.58933 1.552 5.52C1.504 5.41867 1.48 5.272 1.48 5.08V4.44H0.784C0.608 4.44 0.48 4.41867 0.4 4.376C0.32 4.33333 0.266667 4.26667 0.24 4.176C0.213333 4.08 0.2 3.95733 0.2 3.808C0.2 3.65867 0.213333 3.53867 0.24 3.448C0.272 3.352 0.325333 3.28533 0.4 3.248C0.501333 3.2 0.648 3.176 0.84 3.176H1.48V2.528C1.48 2.34133 1.50133 2.20533 1.544 2.12C1.58667 2.03467 1.65333 1.97867 1.744 1.952C1.84 1.92 1.96267 1.904 2.112 1.904C2.26133 1.904 2.38133 1.92 2.472 1.952C2.568 1.97867 2.63467 2.02667 2.672 2.096C2.72 2.19733 2.744 2.344 2.744 2.536V3.176ZM12.7942 0.36C12.8369 0.44 12.8609 0.512 12.8662 0.576C12.8769 0.64 12.8822 0.733333 12.8822 0.856V5.296C12.8822 5.664 12.7809 5.88 12.5782 5.944C12.4769 5.976 12.3489 5.992 12.1942 5.992C12.0395 5.992 11.9169 5.97867 11.8262 5.952C11.7355 5.92533 11.6662 5.89333 11.6182 5.856C11.5702 5.81867 11.5329 5.76533 11.5062 5.696C11.4795 5.60533 11.4662 5.46667 11.4662 5.28V2.6C11.3329 2.76533 11.1382 3.02933 10.8822 3.392C10.6262 3.74933 10.4635 3.97333 10.3942 4.064C10.3249 4.15467 10.2769 4.21867 10.2502 4.256C10.2235 4.288 10.1569 4.336 10.0502 4.4C9.94885 4.45867 9.83685 4.488 9.71419 4.488C9.59685 4.488 9.48752 4.46133 9.38619 4.408C9.29019 4.34933 9.22085 4.29333 9.17819 4.24L9.11419 4.152C9.00752 4.01867 8.79685 3.736 8.48219 3.304C8.16752 2.86667 7.99685 2.632 7.97019 2.6V5.296C7.97019 5.41867 7.96485 5.512 7.95419 5.576C7.94885 5.63467 7.92485 5.70133 7.88219 5.776C7.80219 5.92 7.59419 5.992 7.25819 5.992C6.93285 5.992 6.73019 5.92 6.65019 5.776C6.60752 5.70133 6.58085 5.632 6.57019 5.568C6.56485 5.504 6.56219 5.408 6.56219 5.28V0.84C6.56219 0.717333 6.56485 0.626666 6.57019 0.568C6.58085 0.504 6.60752 0.432 6.65019 0.352C6.73019 0.213333 6.93819 0.144 7.27419 0.144C7.41819 0.144 7.54085 0.162666 7.64219 0.2C7.74885 0.232 7.81819 0.266666 7.85019 0.304L7.89819 0.352L9.71419 2.736C10.6209 1.536 11.2262 0.744 11.5302 0.36C11.6209 0.216 11.8342 0.144 12.1702 0.144C12.5115 0.144 12.7195 0.216 12.7942 0.36ZM16.9071 0.552L19.0671 5.016C19.1578 5.19733 19.2031 5.33333 19.2031 5.424C19.2031 5.616 19.0485 5.78933 18.7391 5.944C18.5578 6.03467 18.4138 6.08 18.3071 6.08C18.2058 6.08 18.1205 6.056 18.0511 6.008C17.9871 5.96 17.9391 5.90933 17.9071 5.856C17.8805 5.80267 17.8405 5.72267 17.7871 5.616L17.3711 4.752H15.1551L14.7391 5.616C14.6858 5.72267 14.6431 5.8 14.6111 5.848C14.5845 5.896 14.5365 5.94667 14.4671 6C14.4031 6.048 14.3178 6.072 14.2111 6.072C14.1098 6.072 13.9685 6.02667 13.7871 5.936C13.4778 5.78667 13.3231 5.616 13.3231 5.424C13.3231 5.33333 13.3685 5.19733 13.4591 5.016L15.6191 0.544C15.6778 0.421333 15.7658 0.322666 15.8831 0.248C16.0058 0.173333 16.1338 0.136 16.2671 0.136C16.5551 0.136 16.7685 0.274666 16.9071 0.552ZM16.2591 2.472L15.7311 3.568H16.7951L16.2591 2.472ZM23.9683 1.32C24.107 1.60267 24.1763 1.91733 24.1763 2.264C24.1763 2.61067 24.107 2.92533 23.9683 3.208C23.8296 3.48533 23.651 3.70667 23.4323 3.872C22.9896 4.21333 22.531 4.384 22.0563 4.384H21.0563V5.288C21.0563 5.41067 21.051 5.504 21.0403 5.568C21.035 5.62667 21.011 5.696 20.9683 5.776C20.8936 5.92 20.6856 5.992 20.3443 5.992C19.971 5.992 19.7523 5.89333 19.6883 5.696C19.6563 5.60533 19.6403 5.46667 19.6403 5.28V0.84C19.6403 0.717333 19.643 0.626666 19.6483 0.568C19.659 0.504 19.6856 0.432 19.7283 0.352C19.803 0.208 20.011 0.136 20.3523 0.136H22.0643C22.5336 0.136 22.9896 0.306666 23.4323 0.648C23.651 0.813333 23.8296 1.03733 23.9683 1.32ZM22.0643 2.968C22.2243 2.968 22.3816 2.90933 22.5363 2.792C22.691 2.67467 22.7683 2.49867 22.7683 2.264C22.7683 2.02933 22.691 1.85333 22.5363 1.736C22.3816 1.61333 22.2216 1.552 22.0563 1.552H21.0563V2.968H22.0643Z" fill="#98344C"/>
</svg>
