<svg width="142" height="142" viewBox="0 0 142 142" fill="none" xmlns="http://www.w3.org/2000/svg">
<g clip-path="url(#clip0)">
<path fill-rule="evenodd" clip-rule="evenodd" d="M82.0799 53.03C80.9919 53.03 80.1099 53.912 80.1099 55C80.1099 56.088 80.9919 56.97 82.0799 56.97H91.52L93.9609 63.4071L79.4865 79.328C78.9655 79.8595 78.4484 80.3439 77.9356 80.7843C80.8719 79.5271 83.7659 78.3781 86.6228 77.3357L95.5282 67.5402L97.1098 71.7111L94.3158 74.7588C96.8057 74.001 99.2698 73.3267 101.712 72.7348L94.7219 54.3015C94.4316 53.5362 93.6984 53.03 92.8799 53.03H82.0799ZM134 93.0821L134 119.358C136.365 115.392 137.62 110.854 137.62 106.22C137.62 101.555 136.349 97.0219 134 93.0821ZM117 131.372L117 127.339C113.973 128.06 110.813 128.125 107.734 127.513C103.523 126.675 99.6547 124.608 96.6185 121.571C93.5824 118.535 91.5147 114.667 90.677 110.455C89.8393 106.244 90.2692 101.879 91.9124 97.912C92.7597 95.8664 93.91 93.9741 95.3151 92.2937C93.2835 92.9846 91.2196 93.7411 89.1205 94.5654C88.8144 95.1654 88.5314 95.7788 88.2723 96.4042C86.3309 101.091 85.823 106.249 86.8127 111.224C87.8024 116.2 90.2453 120.77 93.8326 124.357C97.4198 127.945 101.99 130.387 106.966 131.377C110.294 132.039 113.704 132.031 117 131.372ZM77.0991 99.8456C75.8652 100.442 74.619 101.06 73.3598 101.7C73.5331 101.837 73.6991 101.985 73.8569 102.143C74.939 103.225 75.5478 104.692 75.5498 106.222C75.5494 107.363 75.211 108.477 74.5774 109.426C73.9434 110.375 73.0422 111.114 71.9879 111.551C71.303 111.835 70.5734 111.982 69.8393 111.99L68.9587 111.931C68.8569 111.917 68.7554 111.899 68.6542 111.879C67.5349 111.657 66.5068 111.107 65.6998 110.3C64.8929 109.493 64.3433 108.465 64.1207 107.346C64.0791 107.137 64.0493 106.926 64.0311 106.715C62.8382 107.39 61.6338 108.083 60.4176 108.795C60.6758 109.734 61.0731 110.626 61.594 111.443L56.5379 111.107C54.0764 112.599 51.567 114.166 49.0067 115.811C48.5878 116.661 48.112 117.487 47.5811 118.281C45.1956 121.852 41.8049 124.634 37.8379 126.277C35.734 127.149 33.518 127.679 31.2723 127.86C29.5531 129.087 27.8124 130.344 26.0494 131.633C30.5459 132.249 35.1356 131.661 39.3457 129.918C44.0326 127.976 48.0386 124.689 50.8571 120.47C52.0296 118.716 52.9747 116.833 53.6787 114.866L68.5668 115.854C68.9624 115.904 69.3598 115.929 69.7566 115.93C69.7736 115.93 69.7905 115.93 69.8073 115.93C71.0671 115.926 72.3204 115.678 73.4957 115.191C75.27 114.456 76.7865 113.211 77.8534 111.615C78.9204 110.018 79.4898 108.14 79.4898 106.22V106.217C79.4868 103.868 78.6329 101.606 77.0991 99.8456ZM9.75003 122.55C10.8106 121.755 11.8651 120.969 12.9135 120.192C10.5658 117.4 8.95263 114.053 8.23705 110.455C7.39936 106.244 7.82929 101.879 9.47247 97.912C11.1156 93.945 13.8983 90.5544 17.4685 88.1689C21.0387 85.7833 25.2361 84.5101 29.5299 84.5101C31.2222 84.5101 32.8942 84.7077 34.5149 85.0901L24.0206 101.837C23.614 102.348 23.2783 102.916 23.0256 103.526C22.4928 104.812 22.3534 106.228 22.625 107.593C22.8967 108.959 23.5672 110.213 24.5517 111.198C24.6681 111.314 24.7882 111.426 24.9118 111.534C26.0829 110.712 27.2463 109.904 28.4022 109.108C28.0049 108.952 27.6421 108.716 27.3377 108.412C26.9042 107.978 26.6089 107.426 26.4893 106.825C26.3701 106.226 26.4306 105.605 26.6631 105.04L27.2178 104.155C27.391 103.961 27.5889 103.788 27.8075 103.642C28.3173 103.302 28.9166 103.12 29.5297 103.12C30.3519 103.12 31.1404 103.447 31.7218 104.028C32.3031 104.609 32.6297 105.398 32.6297 106.22C32.6297 106.223 32.6297 106.227 32.6297 106.23C33.8171 105.432 34.9965 104.648 36.1683 103.877C36.0268 103.476 35.8493 103.088 35.6376 102.719L38.1989 102.549C40.5476 101.024 42.8655 99.5541 45.1544 98.1392L30.373 99.1197L38.3537 86.3841C40.7633 87.456 42.9803 88.9679 44.8812 90.8688C46.4061 92.3937 47.6807 94.1221 48.6786 95.9901C49.8164 95.306 50.947 94.6358 52.0707 93.9793C50.9043 91.8313 49.4268 89.8424 47.6672 88.0828C45.5557 85.9713 43.1141 84.266 40.4636 83.0171L46.4298 73.4962C46.6574 73.8178 46.9058 74.1616 47.1743 74.5232L58.0354 90.5883C59.2025 89.9436 60.3622 89.3143 61.5149 88.7002L59.7943 86.1553C60.942 86.7711 62.1468 87.3009 63.4012 87.7057C65.4883 86.6169 67.5522 85.5787 69.5947 84.5908C69.1163 84.6276 68.6453 84.6344 68.1821 84.615C64.6827 84.468 61.3025 82.8055 58.257 80.4595C55.225 78.1239 52.6766 75.2271 50.8716 72.8808C50.7038 72.6626 50.5427 72.4497 50.3887 72.243L46.5197 66.5201H49.78C50.4812 66.5201 51.1756 66.3817 51.8233 66.1129C52.471 65.8441 53.0593 65.45 53.5545 64.9534C54.0496 64.4568 54.4419 63.8673 54.7088 63.2188C54.964 62.5988 55.0998 61.9364 55.1094 61.2665C55.1098 61.2511 55.11 61.2356 55.11 61.2201V61.2016L55.11 61.1743C55.1099 61.1558 55.1096 61.1374 55.109 61.119C55.0829 59.742 54.5245 58.427 53.5488 57.4513C52.5493 56.4517 51.1936 55.8901 49.78 55.8901H37.5502H37.55C36.1474 55.89 34.8011 56.4417 33.802 57.4261C32.8028 58.4104 32.231 59.7484 32.2102 61.1509L32.21 61.1801C32.21 62.5964 32.7726 63.9546 33.774 64.9561C34.7755 65.9575 36.1337 66.5201 37.55 66.5201H41.7638L44.0409 69.8884L36.7056 81.5942C34.3945 80.9207 31.9803 80.5701 29.5299 80.5701C24.4568 80.5701 19.4976 82.0744 15.2795 84.8929C11.0614 87.7113 7.77377 91.7173 5.83238 96.4042C3.891 101.091 3.38304 106.249 4.37275 111.224C5.2031 115.399 7.05633 119.288 9.75003 122.55ZM103.932 89.7032L107.915 100.205C106.826 100.972 105.976 102.033 105.466 103.266C104.933 104.552 104.793 105.968 105.065 107.333C105.337 108.699 106.007 109.953 106.992 110.938C107.976 111.923 109.231 112.593 110.596 112.865C111.962 113.136 113.377 112.997 114.664 112.464C115.545 112.099 116.339 111.56 117 110.885L117 101.035C116.983 101.017 116.965 100.999 116.948 100.982C115.627 99.6616 113.837 98.9199 111.97 98.9199C111.861 98.9199 111.752 98.9224 111.644 98.9275L107.794 88.7736C106.518 89.0559 105.232 89.3656 103.932 89.7032ZM49.78 62.5801H42.84C42.8187 62.5798 42.7974 62.5798 42.7761 62.5801H37.55C37.1787 62.5801 36.8226 62.4326 36.56 62.1701C36.3009 61.911 36.1539 61.5608 36.15 61.1948C36.1592 60.8324 36.3086 60.4875 36.5671 60.2328C36.829 59.9747 37.182 59.8301 37.5497 59.8301L37.55 59.8301H49.78C50.1486 59.8301 50.5022 59.9766 50.7628 60.2373C51.0202 60.4946 51.1662 60.8424 51.1699 61.2059C51.1679 61.382 51.1324 61.5562 51.0654 61.7192C50.9957 61.8883 50.8934 62.042 50.7643 62.1716C50.6352 62.3011 50.4818 62.4038 50.3129 62.4739C50.1439 62.5441 49.9628 62.5801 49.78 62.5801ZM110.247 103.382C110.452 103.245 110.672 103.134 110.901 103.05C110.96 103.034 111.019 103.014 111.078 102.992L111.092 102.987C111.376 102.903 111.671 102.86 111.97 102.86C112.792 102.86 113.58 103.187 114.162 103.768C114.743 104.349 115.07 105.138 115.07 105.96C115.07 106.573 114.888 107.172 114.547 107.682C114.207 108.192 113.722 108.589 113.156 108.824C112.59 109.059 111.966 109.12 111.365 109C110.764 108.881 110.211 108.585 109.778 108.152C109.344 107.718 109.049 107.166 108.929 106.565C108.81 105.963 108.871 105.34 109.106 104.774C109.34 104.207 109.738 103.723 110.247 103.382Z" fill="#828B90"/>
<path d="M129.492 78.5001L129.446 81.4148C130.219 81.4268 130.966 81.1313 131.521 80.5933C132.076 80.0552 132.395 79.3187 132.407 78.5457L129.492 78.5001ZM126 78.5098L125.938 75.5954C124.353 75.6289 123.085 76.9238 123.085 78.5098L126 78.5098ZM129.508 77.5002L132.422 77.5458C132.447 75.9361 131.163 74.6107 129.553 74.5856L129.508 77.5002ZM126 77.5095H123.085C123.085 78.2932 123.4 79.0439 123.96 79.5922C124.52 80.1405 125.277 80.4403 126.061 80.4239L126 77.5095ZM126 77.5001H128.915C128.915 76.727 128.608 75.9855 128.061 75.4389C127.514 74.8922 126.773 74.5851 126 74.5851L126 77.5001ZM125 77.5001L125 74.5851C123.39 74.5851 122.085 75.8902 122.085 77.5001H125ZM125 77.5356L125.091 80.4492C126.665 80.4 127.915 79.1101 127.915 77.5356H125ZM11.6978 131.102L9.93652 128.779C8.65369 129.752 8.40228 131.58 9.37498 132.863L11.6978 131.102ZM12.3019 131.899L9.97917 133.66C10.4463 134.276 11.139 134.681 11.9049 134.786C12.6708 134.892 13.4471 134.688 14.0632 134.221L12.3019 131.899ZM125 78.5361L127.915 78.5361C127.915 77.747 127.595 76.9917 127.028 76.4426C126.462 75.8935 125.697 75.5977 124.908 75.6226L125 78.5361ZM125 131.991L122.085 131.991C122.085 133.601 123.39 134.906 125 134.906L125 131.991ZM126 131.991L126 134.906C126.773 134.906 127.515 134.599 128.061 134.052C128.608 133.506 128.915 132.764 128.915 131.991L126 131.991ZM129.538 75.5855C128.342 75.5668 127.142 75.57 125.938 75.5954L126.061 81.4241C127.194 81.4002 128.322 81.3972 129.446 81.4148L129.538 75.5855ZM126.593 77.4547L126.577 78.4546L132.407 78.5457L132.422 77.5458L126.593 77.4547ZM126.061 80.4239C127.199 80.4001 128.332 80.3972 129.462 80.4149L129.553 74.5856C128.352 74.5668 127.148 74.5699 125.939 74.5952L126.061 80.4239ZM123.085 77.5001V77.5095H128.915V77.5001H123.085ZM125 80.4151L126 80.4151L126 74.5851L125 74.5851L125 80.4151ZM127.915 77.5356V77.5001H122.085V77.5356H127.915ZM13.459 133.425C61.6934 96.8511 95.0892 81.3873 125.091 80.4492L124.909 74.622C93.0067 75.6196 58.3764 92.0497 9.93652 128.779L13.459 133.425ZM14.6247 130.137L14.0205 129.341L9.37498 132.863L9.97917 133.66L14.6247 130.137ZM124.908 75.6226C93.3403 76.62 58.9288 92.8859 10.5407 129.576L14.0632 134.221C62.2459 97.6871 95.4237 82.3871 125.092 81.4497L124.908 75.6226ZM127.915 131.991L127.915 78.5361L122.085 78.5361L122.085 131.991L127.915 131.991ZM126 129.076L125 129.076L125 134.906L126 134.906L126 129.076ZM123.085 78.5098L123.085 131.991L128.915 131.991L128.915 78.5097L123.085 78.5098Z" fill="#39B66A"/>
<path d="M138.37 134.49H4" stroke="#39B66A" stroke-width="5.83" stroke-linecap="round" stroke-linejoin="round"/>
</g>
<defs>
<clipPath id="clip0">
<rect width="141.73" height="141.73" fill="white"/>
</clipPath>
</defs>
</svg>
