<svg width="145" height="169" viewBox="0 0 145 169" fill="none" xmlns="http://www.w3.org/2000/svg">
<path fill-rule="evenodd" clip-rule="evenodd" d="M81.2318 134.742C111.616 130.483 135 104.317 135 72.6744C135 38.0603 107.018 10 72.5 10C37.9822 10 10 38.0603 10 72.6744C10 104.692 33.9409 131.101 64.8502 134.884L73 149L81.2318 134.742Z" fill="#00D47E"/>
<path fill-rule="evenodd" clip-rule="evenodd" d="M64.8502 134.884C33.9409 131.101 10 104.692 10 72.6744C10 38.0603 37.9822 10 72.5 10C107.018 10 135 38.0603 135 72.6744C135 104.317 111.616 130.483 81.2318 134.742L73 149L64.8502 134.884ZM87.5629 143.776C120.395 136.819 145 107.619 145 72.6744C145 32.5637 112.567 0 72.5 0C32.4331 0 0 32.5637 0 72.6744C0 108.019 25.1722 137.488 58.5703 144.007L73 169L87.5629 143.776Z" fill="white"/>
<path d="M81.552 48.816C81.8933 48.176 82.4693 47.728 83.28 47.472C84.0907 47.216 85.1147 47.088 86.352 47.088C87.5893 47.088 88.5707 47.1947 89.296 47.408C90.0213 47.6213 90.576 47.8773 90.96 48.176C91.344 48.4747 91.6427 48.9013 91.856 49.456C92.0693 50.1813 92.176 51.2907 92.176 52.784V88.304C92.176 89.2853 92.1333 90.032 92.048 90.544C92.0053 91.0133 91.8133 91.568 91.472 92.208C90.8747 93.36 89.2107 93.936 86.48 93.936C83.4933 93.936 81.744 93.1467 81.232 91.568C80.976 90.8427 80.848 89.7333 80.848 88.24V75.248H63.888V88.304C63.888 89.2853 63.8453 90.032 63.76 90.544C63.7173 91.0133 63.5253 91.568 63.184 92.208C62.5867 93.36 60.9227 93.936 58.192 93.936C55.2053 93.936 53.456 93.1467 52.944 91.568C52.688 90.8427 52.56 89.7333 52.56 88.24V52.72C52.56 51.7387 52.5813 51.0133 52.624 50.544C52.7093 50.032 52.9227 49.456 53.264 48.816C53.8613 47.664 55.5253 47.088 58.256 47.088C61.2427 47.088 63.0133 47.8773 63.568 49.456C63.7813 50.1813 63.888 51.2907 63.888 52.784V65.84H80.848V52.72C80.848 51.7387 80.8693 51.0133 80.912 50.544C80.9973 50.032 81.2107 49.456 81.552 48.816Z" fill="white"/>
</svg>
