<svg width="145" height="177" viewBox="0 0 145 177" fill="none" xmlns="http://www.w3.org/2000/svg">
<ellipse cx="73" cy="169.143" rx="25" ry="7.14286" fill="#C4C4C4" fill-opacity="0.5"/>
<path fill-rule="evenodd" clip-rule="evenodd" d="M81.2318 134.742C111.616 130.483 135 104.317 135 72.6744C135 38.0603 107.018 10 72.5 10C37.9822 10 10 38.0603 10 72.6744C10 104.692 33.9409 131.101 64.8502 134.884L73 149L81.2318 134.742Z" fill="#56CCF2"/>
<path fill-rule="evenodd" clip-rule="evenodd" d="M64.8502 134.884C33.9409 131.101 10 104.692 10 72.6744C10 38.0603 37.9822 10 72.5 10C107.018 10 135 38.0603 135 72.6744C135 104.317 111.616 130.483 81.2318 134.742L73 149L64.8502 134.884ZM87.5629 143.776C120.395 136.819 145 107.619 145 72.6744C145 32.5637 112.567 0 72.5 0C32.4331 0 0 32.5637 0 72.6744C0 108.019 25.1722 137.488 58.5703 144.007L73 169L87.5629 143.776Z" fill="white"/>
<path d="M67.2001 86.272C67.6267 85.4187 68.2667 84.8427 69.1201 84.544C70.0161 84.2454 71.3814 84.096 73.2161 84.096C75.0934 84.096 76.4374 84.5014 77.2481 85.312C78.1014 86.1227 78.5281 87.4027 78.5281 89.152V90.176C78.5281 91.2 78.4854 91.968 78.4001 92.48C78.3574 92.9494 78.1654 93.5254 77.8241 94.208C77.1414 95.4454 75.4987 96.064 72.8961 96.064C70.3361 96.064 68.6294 95.6587 67.7761 94.848C66.9654 93.9947 66.5601 92.3734 66.5601 89.984C66.5601 88.32 66.7734 87.0827 67.2001 86.272ZM75.7761 78.784C74.9654 78.9974 73.8774 79.104 72.5121 79.104C71.1467 79.104 70.0587 78.9974 69.2481 78.784C68.4374 78.5707 67.8614 78.1867 67.5201 77.632C67.2214 77.0774 67.0294 76.5867 66.9441 76.16C66.9014 75.7334 66.8801 75.072 66.8801 74.176V53.888C66.8801 52.992 66.9014 52.3307 66.9441 51.904C67.0294 51.4347 67.2427 50.9227 67.5841 50.368C67.9254 49.8134 68.5014 49.4294 69.3121 49.216C70.1227 48.96 71.2107 48.832 72.5761 48.832C73.9414 48.832 75.0294 48.96 75.8401 49.216C76.6507 49.4294 77.2054 49.8347 77.5041 50.432C77.8454 50.9867 78.0374 51.4987 78.0801 51.968C78.1654 52.3947 78.2081 53.056 78.2081 53.952V74.24C78.2081 75.136 78.1654 75.7974 78.0801 76.224C78.0374 76.6507 77.8454 77.1414 77.5041 77.696C77.1627 78.208 76.5867 78.5707 75.7761 78.784Z" fill="white"/>
</svg>
