<svg width="145" height="177" viewBox="0 0 145 177" fill="none" xmlns="http://www.w3.org/2000/svg">
<ellipse cx="73" cy="169.143" rx="25" ry="7.14286" fill="#C4C4C4" fill-opacity="0.5"/>
<path fill-rule="evenodd" clip-rule="evenodd" d="M81.2318 134.742C111.616 130.483 135 104.317 135 72.6744C135 38.0603 107.018 10 72.5 10C37.9822 10 10 38.0603 10 72.6744C10 104.692 33.9409 131.101 64.8502 134.884L73 149L81.2318 134.742Z" fill="#00D47E"/>
<path fill-rule="evenodd" clip-rule="evenodd" d="M64.8502 134.884C33.9409 131.101 10 104.692 10 72.6744C10 38.0603 37.9822 10 72.5 10C107.018 10 135 38.0603 135 72.6744C135 104.317 111.616 130.483 81.2318 134.742L73 149L64.8502 134.884ZM87.5629 143.776C120.395 136.819 145 107.619 145 72.6744C145 32.5637 112.567 0 72.5 0C32.4331 0 0 32.5637 0 72.6744C0 108.019 25.1722 137.488 58.5703 144.007L73 169L87.5629 143.776Z" fill="white"/>
<path d="M81.5521 48.816C81.8934 48.176 82.4694 47.728 83.2801 47.472C84.0907 47.216 85.1147 47.088 86.3521 47.088C87.5894 47.088 88.5707 47.1947 89.2961 47.408C90.0214 47.6213 90.5761 47.8773 90.9601 48.176C91.3441 48.4747 91.6427 48.9013 91.8561 49.456C92.0694 50.1813 92.1761 51.2907 92.1761 52.784V88.304C92.1761 89.2853 92.1334 90.032 92.0481 90.544C92.0054 91.0133 91.8134 91.568 91.4721 92.208C90.8747 93.36 89.2107 93.936 86.4801 93.936C83.4934 93.936 81.7441 93.1467 81.2321 91.568C80.9761 90.8427 80.8481 89.7333 80.8481 88.24V75.248H63.8881V88.304C63.8881 89.2853 63.8454 90.032 63.7601 90.544C63.7174 91.0133 63.5254 91.568 63.1841 92.208C62.5867 93.36 60.9227 93.936 58.1921 93.936C55.2054 93.936 53.4561 93.1467 52.9441 91.568C52.6881 90.8427 52.5601 89.7333 52.5601 88.24V52.72C52.5601 51.7387 52.5814 51.0133 52.6241 50.544C52.7094 50.032 52.9227 49.456 53.2641 48.816C53.8614 47.664 55.5254 47.088 58.2561 47.088C61.2427 47.088 63.0134 47.8773 63.5681 49.456C63.7814 50.1813 63.8881 51.2907 63.8881 52.784V65.84H80.8481V52.72C80.8481 51.7387 80.8694 51.0133 80.9121 50.544C80.9974 50.032 81.2107 49.456 81.5521 48.816Z" fill="white"/>
</svg>
