<svg width="145" height="177" viewBox="0 0 145 177" fill="none" xmlns="http://www.w3.org/2000/svg">
<ellipse cx="73" cy="169.143" rx="25" ry="7.14286" fill="#C4C4C4" fill-opacity="0.5"/>
<path fill-rule="evenodd" clip-rule="evenodd" d="M81.2318 134.742C111.616 130.483 135 104.317 135 72.6744C135 38.0603 107.018 10 72.5 10C37.9822 10 10 38.0603 10 72.6744C10 104.692 33.9409 131.101 64.8502 134.884L73 149L81.2318 134.742Z" fill="#00D47E"/>
<path fill-rule="evenodd" clip-rule="evenodd" d="M64.8502 134.884C33.9409 131.101 10 104.692 10 72.6744C10 38.0603 37.9822 10 72.5 10C107.018 10 135 38.0603 135 72.6744C135 104.317 111.616 130.483 81.2318 134.742L73 149L64.8502 134.884ZM87.5629 143.776C120.395 136.819 145 107.619 145 72.6744C145 32.5637 112.567 0 72.5 0C32.4331 0 0 32.5637 0 72.6744C0 108.019 25.1722 137.488 58.5703 144.007L73 169L87.5629 143.776Z" fill="white"/>
<path d="M94.1841 58.56C95.2934 60.8213 95.8481 63.3387 95.8481 66.112C95.8481 68.8853 95.2934 71.4027 94.1841 73.664C93.0747 75.8827 91.6454 77.6533 89.8961 78.976C86.3547 81.7067 82.6854 83.072 78.8881 83.072H70.8881V90.304C70.8881 91.2854 70.8454 92.032 70.7601 92.544C70.7174 93.0133 70.5254 93.568 70.1841 94.208C69.5867 95.36 67.9227 95.936 65.1921 95.936C62.2054 95.936 60.4561 95.1467 59.9441 93.568C59.6881 92.8427 59.5601 91.7333 59.5601 90.24V54.72C59.5601 53.7387 59.5814 53.0133 59.6241 52.544C59.7094 52.032 59.9227 51.456 60.2641 50.816C60.8614 49.664 62.5254 49.088 65.2561 49.088H78.9521C82.7067 49.088 86.3547 50.4533 89.8961 53.184C91.6454 54.5067 93.0747 56.2987 94.1841 58.56ZM78.9521 71.744C80.2321 71.744 81.4907 71.2747 82.7281 70.336C83.9654 69.3973 84.5841 67.9893 84.5841 66.112C84.5841 64.2347 83.9654 62.8267 82.7281 61.888C81.4907 60.9067 80.2107 60.416 78.8881 60.416H70.8881V71.744H78.9521Z" fill="white"/>
</svg>
