<svg width="142" height="142" viewBox="0 0 142 142" fill="none" xmlns="http://www.w3.org/2000/svg">
<g clip-path="url(#clip0)">
<path fill-rule="evenodd" clip-rule="evenodd" d="M82.0799 53.03C80.9919 53.03 80.1099 53.912 80.1099 55C80.1099 56.088 80.9919 56.97 82.0799 56.97H91.52L93.9609 63.4071L79.4865 79.328C75.4172 83.4792 71.5872 84.758 68.1821 84.615C64.6827 84.468 61.3025 82.8055 58.257 80.4595C55.225 78.1239 52.6766 75.2271 50.8716 72.8808C50.7038 72.6626 50.5427 72.4497 50.3887 72.243L46.5197 66.5201H49.78C50.4812 66.5201 51.1756 66.3817 51.8233 66.1129C52.471 65.8441 53.0593 65.45 53.5545 64.9534C54.0496 64.4568 54.4419 63.8673 54.7088 63.2188C54.964 62.5988 55.0998 61.9364 55.1094 61.2665C55.1098 61.2511 55.11 61.2356 55.11 61.2201V61.2016L55.11 61.1743C55.1099 61.1558 55.1096 61.1374 55.109 61.119C55.0829 59.742 54.5245 58.427 53.5488 57.4513C52.5493 56.4517 51.1936 55.8901 49.78 55.8901H37.5502H37.55C36.1474 55.89 34.8011 56.4417 33.802 57.4261C32.8028 58.4104 32.231 59.7484 32.2102 61.1509L32.21 61.1801C32.21 62.5964 32.7726 63.9546 33.774 64.9561C34.7755 65.9575 36.1337 66.5201 37.55 66.5201H41.7638L44.0409 69.8884L36.7056 81.5942C34.3945 80.9207 31.9803 80.5701 29.5299 80.5701C24.4568 80.5701 19.4976 82.0744 15.2795 84.8929C11.0614 87.7113 7.77377 91.7173 5.83238 96.4042C3.891 101.091 3.38304 106.249 4.37275 111.224C5.36246 116.2 7.80539 120.77 11.3926 124.357C14.9798 127.945 19.5502 130.387 24.5258 131.377C27.2363 131.916 30.0008 132.011 32.7137 131.672C32.338 130.418 32.0119 129.131 31.7382 127.817C29.5987 128.036 27.4268 127.937 25.2945 127.513C21.0832 126.675 17.2148 124.608 14.1786 121.571C11.1424 118.535 9.07473 114.667 8.23705 110.455C7.39936 106.244 7.82929 101.879 9.47247 97.912C11.1156 93.945 13.8983 90.5544 17.4685 88.1689C21.0387 85.7833 25.2361 84.5101 29.5299 84.5101C31.2222 84.5101 32.8942 84.7077 34.5149 85.0901L24.0206 101.837C23.614 102.348 23.2783 102.916 23.0256 103.526C22.4928 104.812 22.3534 106.228 22.625 107.593C22.8967 108.959 23.5672 110.213 24.5517 111.198C25.5363 112.183 26.7907 112.853 28.1563 113.125C28.5866 113.21 29.0219 113.255 29.4566 113.26L30.9076 113.356C31.0529 111.712 31.2774 110.106 31.5752 108.549C31.3214 108.772 31.0315 108.953 30.7161 109.084C30.1496 109.319 29.5263 109.38 28.925 109.26C28.3236 109.141 27.7713 108.846 27.3377 108.412C26.9042 107.978 26.6089 107.426 26.4893 106.825C26.3701 106.226 26.4306 105.605 26.6631 105.04L27.2178 104.155C27.391 103.961 27.5889 103.788 27.8075 103.642C28.3173 103.302 28.9166 103.12 29.5297 103.12C30.3519 103.12 31.1404 103.447 31.7218 104.028C32.0121 104.318 32.239 104.66 32.3933 105.032C32.9997 102.833 33.7581 100.757 34.648 98.8361L30.373 99.1197L38.3537 86.3841C39.745 87.003 41.0721 87.7686 42.3112 88.6711C43.4526 87.778 44.6537 87.0401 45.9028 86.4753C44.2335 85.091 42.4045 83.9317 40.4636 83.0171L46.4298 73.4962C46.6574 73.8178 46.9058 74.1616 47.1743 74.5232L54.5447 85.425C56.9597 85.898 59.2472 86.9998 61.3364 88.6205C61.3633 88.5989 61.3903 88.5774 61.4173 88.5559L59.7943 86.1553C60.7926 86.691 61.8341 87.1615 62.914 87.5414C65.3679 85.8472 68.0827 85.0001 70.9296 85.0001C72.9602 85.0001 74.9599 85.4747 76.8562 86.3495C78.691 85.3194 80.5211 83.9056 82.3283 82.0574L82.3467 82.0383C82.357 82.0274 82.3672 82.0164 82.3773 82.0053L95.5282 67.5402L97.1098 71.7111L84.4801 85.488C86.1715 84.8171 87.9612 84.4649 89.7967 84.4649C90.1105 84.4649 90.4229 84.4757 90.7335 84.4971L98.6738 75.8356L101.343 82.8749C100.088 83.4462 98.8759 84.1201 97.7195 84.8929C97.1904 85.2464 96.676 85.6186 96.177 86.0084C97.3976 86.6154 98.5714 87.3914 99.6872 88.3187C99.7606 88.2683 99.8343 88.2184 99.9084 88.1689C100.816 87.5625 101.764 87.0281 102.744 86.5681L107.915 100.205C107.894 100.22 107.873 100.235 107.852 100.25C108.384 101.586 108.859 102.985 109.269 104.438C109.507 104.016 109.842 103.654 110.247 103.382C110.452 103.245 110.672 103.134 110.901 103.05C110.96 103.034 111.019 103.014 111.078 102.992L111.092 102.987C111.376 102.903 111.671 102.86 111.97 102.86C112.792 102.86 113.58 103.187 114.162 103.768C114.743 104.349 115.07 105.138 115.07 105.96C115.07 106.573 114.888 107.172 114.547 107.682C114.207 108.192 113.722 108.589 113.156 108.824C112.59 109.059 111.966 109.12 111.365 109C110.955 108.919 110.567 108.755 110.225 108.522C110.492 109.948 110.701 111.413 110.845 112.91C112.133 113.118 113.455 112.965 114.664 112.464C115.95 111.931 117.05 111.029 117.823 109.871C118.597 108.713 119.01 107.352 119.01 105.96C119.01 104.093 118.268 102.302 116.948 100.982C115.627 99.6616 113.837 98.9199 111.97 98.9199C111.861 98.9199 111.752 98.9224 111.644 98.9275L106.448 85.2241C108.241 84.7525 110.096 84.5101 111.97 84.5101C117.728 84.5101 123.25 86.7974 127.321 90.8688C131.393 94.9402 133.68 100.462 133.68 106.22C133.68 110.514 132.407 114.711 130.021 118.281C127.636 121.852 124.245 124.634 120.278 126.277C116.987 127.64 113.423 128.169 109.9 127.831C109.605 129.145 109.257 130.431 108.86 131.681C113.238 132.216 117.691 131.614 121.786 129.918C126.473 127.976 130.479 124.689 133.297 120.47C136.115 116.252 137.62 111.293 137.62 106.22C137.62 99.4173 134.917 92.8931 130.107 88.0828C125.297 83.2725 118.773 80.5701 111.97 80.5701C109.616 80.5701 107.286 80.894 105.044 81.5228L94.7219 54.3015C94.4316 53.5362 93.6984 53.03 92.8799 53.03H82.0799ZM101.91 129.815C102.388 128.598 102.786 127.338 103.105 126.038C100.701 124.963 98.5001 123.453 96.6185 121.571C94.5397 119.493 92.9149 117.024 91.8281 114.322C91.8983 115.412 91.9341 116.52 91.9341 117.643C91.9341 119.03 91.826 120.445 91.6206 121.835C92.2995 122.72 93.038 123.563 93.8326 124.357C96.1628 126.688 98.9079 128.535 101.91 129.815ZM65.9667 115.681L56.8008 115.073C56.8202 114.793 56.8461 114.518 56.8804 114.254C56.9668 113.202 57.0933 112.167 57.26 111.155L61.594 111.443C60.9486 110.431 60.4929 109.303 60.2564 108.114C59.9189 106.417 60.0415 104.665 60.6065 103.037C63.4704 105.883 65.5469 110.083 65.9667 115.681ZM87.6793 97.9804C88.7362 100.154 89.6153 102.499 90.2948 104.988C90.4324 102.568 90.975 100.175 91.9124 97.912C92.4375 96.6444 93.0789 95.4357 93.8251 94.2998C92.5875 93.7034 91.2824 93.3836 89.9358 93.3836C89.8777 93.3836 89.8197 93.3841 89.762 93.3851C89.202 94.3541 88.7039 95.3624 88.2723 96.4042C88.057 96.9241 87.8593 97.4498 87.6793 97.9804ZM75.7201 113.901C75.7896 112.935 75.8914 111.989 76.0255 111.043C76.2407 109.755 77.8014 108.704 79.3772 107.695C79.1626 109.091 78.6449 110.43 77.8534 111.615C77.2673 112.492 76.5456 113.263 75.7201 113.901ZM83.9443 91.903L83.8999 91.9515C83.531 91.5139 83.1488 91.0982 82.7533 90.708C82.2316 90.1505 81.6895 89.6279 81.1296 89.1428L81.523 88.7137C81.5997 88.7759 81.6788 88.839 81.7586 88.9026L81.7588 88.9027C81.966 89.0679 82.1784 89.2372 82.3681 89.4074C82.5794 89.6867 82.7909 89.9698 83.0002 90.2552C83.0344 90.4109 83.0066 90.5626 82.8933 90.7078C83.245 91.0836 83.5966 91.4831 83.9443 91.903ZM83.0002 90.2552C83.3238 90.6963 83.6423 91.1429 83.9473 91.5895C83.6272 91.1205 83.3071 90.6514 82.9821 90.1888C82.9856 90.1998 82.9889 90.2107 82.992 90.2217C82.9938 90.2283 82.9955 90.2349 82.9971 90.2414L83.0002 90.2552ZM81.6944 88.5268C81.9168 88.8148 82.1423 89.1089 82.3681 89.4074C82.4275 89.4606 82.4847 89.514 82.5388 89.5674C82.2735 89.2018 82.0036 88.8421 81.7265 88.4917L81.6944 88.5268ZM75.5481 95.2313L73.6394 97.3134C72.4334 96.7901 71.1223 96.5117 69.7824 96.51H69.7798C69.3724 96.51 68.9668 96.5356 68.5655 96.5862L67.9457 96.6273C68.611 97.8309 69.2206 99.11 69.7684 100.455L69.839 100.45C70.3847 100.457 70.9219 100.541 71.4358 100.695C71.7296 99.9469 73.3767 99.3948 74.9761 98.8586C76.4243 98.3732 77.8335 97.9008 78.1639 97.3077C77.35 96.4728 76.4726 95.7736 75.5481 95.2313ZM75.2701 107.995C75.5588 108.932 75.8106 109.94 76.0255 111.043C75.8081 110.02 75.5529 108.998 75.2599 108.026C75.2633 108.016 75.2667 108.005 75.2701 107.995ZM50.0103 121.663C47.3471 125.195 43.8114 127.983 39.743 129.749C39.4589 128.378 39.4652 126.943 39.585 125.461C42.8008 123.781 45.5539 121.315 47.5811 118.281C48.3618 117.113 49.0234 115.877 49.5603 114.593L40.3644 113.983C40.4099 112.573 40.4865 111.262 40.6018 110.05L50.2439 110.69C49.9388 112.947 49.7862 115.279 49.7862 117.643C49.7862 118.982 49.8603 120.335 50.0103 121.663ZM51.2306 105.586C51.5355 104.396 51.8887 103.239 52.2901 102.124C52.6394 101.004 53.0436 99.9543 53.5026 98.9748C52.2711 98.6577 51.0203 98.5 49.7865 98.5C46.2958 98.5 44.0307 99.7292 42.5939 102.258L50.7675 101.715C51.0361 102.982 51.1924 104.277 51.2306 105.586ZM49.78 62.5801H42.84C42.8187 62.5798 42.7974 62.5798 42.7761 62.5801H37.55C37.1787 62.5801 36.8226 62.4326 36.56 62.1701C36.3009 61.911 36.1539 61.5608 36.15 61.1948C36.1592 60.8324 36.3086 60.4875 36.5671 60.2328C36.829 59.9747 37.182 59.8301 37.5497 59.8301L37.55 59.8301H49.78C50.1486 59.8301 50.5022 59.9766 50.7628 60.2373C51.0202 60.4946 51.1662 60.8424 51.1699 61.2059C51.1679 61.382 51.1324 61.5562 51.0654 61.7192C50.9957 61.8883 50.8934 62.042 50.7643 62.1716C50.6352 62.3011 50.4818 62.4038 50.3129 62.4739C50.1439 62.5441 49.9628 62.5801 49.78 62.5801Z" fill="#B3B4B4"/>
<path d="M138.37 134.49H4" stroke="#39B66A" stroke-width="5.83" stroke-linecap="round" stroke-linejoin="round"/>
<path d="M38.4197 133.7C37.3633 133.7 36.4244 132.947 35.8376 131.743C33.9596 127.228 32.9033 121.961 32.9033 116.542C32.9033 101.341 40.8844 89 50.7434 89C60.6025 89 68.5836 101.341 68.5836 116.542C68.5836 123.315 65.532 130.84 61.1893 130.84C59.5461 130.84 58.2551 129.185 58.2551 127.078C58.2551 125.121 59.4288 123.466 60.8372 123.315C61.4241 122.713 62.7151 119.703 62.7151 116.542C62.7151 105.556 57.3161 96.5253 50.7434 96.5253C44.1708 96.5253 38.7718 105.556 38.7718 116.542C38.7718 120.757 39.476 124.67 41.0018 128.131C41.8234 129.937 41.2365 132.195 39.8281 133.248C39.3586 133.549 38.8891 133.7 38.4197 133.7Z" fill="#39B66A"/>
<path d="M75.3913 102.696C73.8655 106.76 73.0439 111.425 73.0439 116.542C73.0439 123.466 75.3914 130.84 80.4382 130.84C82.0814 130.84 83.3725 129.185 83.3725 127.078C83.3725 124.971 82.0814 123.315 80.4382 123.315C79.9688 123.014 78.9124 120.456 78.9124 116.542C78.9124 114.736 79.0298 113.081 79.2645 111.425C78.9124 109.77 78.4429 108.114 77.8561 106.76C77.2693 105.104 76.3303 103.749 75.3913 102.696ZM90.8841 89C88.1846 89 85.6025 89.903 83.3725 91.5586C84.3114 92.6121 85.133 93.8162 85.9546 95.0202C86.4241 95.7727 86.8935 96.6758 87.363 97.4283C88.5367 96.8263 89.7104 96.5253 91.0015 96.5253C97.5742 96.5253 102.973 105.556 102.973 116.542C102.973 120.757 102.269 124.67 100.743 128.131C99.9215 129.937 100.508 132.195 101.917 133.248C102.386 133.549 102.856 133.7 103.325 133.7C104.382 133.7 105.321 132.947 105.907 131.743C107.785 127.228 108.842 121.961 108.842 116.542C108.607 101.341 100.626 89 90.8841 89Z" fill="#39B66A"/>
<path d="M76.9174 99.3846C76.3306 100.438 75.8611 101.492 75.3916 102.696C76.3306 103.749 77.1521 105.104 77.8564 106.759C78.4432 108.114 78.9127 109.619 79.2648 111.425C79.6169 109.318 80.0864 107.512 80.7906 105.706C79.8516 103.147 78.4432 101.04 76.9174 99.3846ZM83.3727 91.5583C82.5512 92.1604 81.6122 92.9129 80.908 93.8159C82.3164 95.321 83.7248 97.2775 84.7812 99.3846C85.6027 98.6321 86.4243 97.8796 87.3633 97.428C86.8938 96.525 86.4243 95.7725 85.9548 95.02C85.1333 93.8159 84.1943 92.6119 83.3727 91.5583Z" fill="white"/>
<path d="M84.663 99.3848C83.1372 101.04 81.7288 103.147 80.7899 105.706C81.9635 108.867 82.6678 112.479 82.6678 116.542C82.6678 118.649 83.9588 120.305 85.602 120.305C87.2452 120.305 88.5362 118.649 88.5362 116.542C88.5362 110.071 87.1278 104.201 84.663 99.3848ZM70.8135 89C68.3487 89 66.0013 89.7525 63.8887 91.2576C64.8276 92.3111 65.6492 93.3646 66.3534 94.5687C66.8229 95.4717 67.4097 96.2242 67.7618 97.1273C68.7008 96.6758 69.7571 96.5253 70.8135 96.5253C73.0435 96.5253 75.1561 97.5788 76.9167 99.3848C77.973 97.2778 79.3814 95.3212 80.7899 93.8162C77.973 90.8061 74.4519 89 70.8135 89Z" fill="#39B66A"/>
<path d="M80.7902 93.8162C79.3817 95.3212 77.9733 97.2778 76.917 99.3848C78.4428 101.04 79.8512 103.147 80.7902 105.706C81.7291 103.147 83.1375 100.89 84.6633 99.3848C83.607 97.2778 82.316 95.3212 80.7902 93.8162Z" fill="#39B66A"/>
<path d="M55.0863 103.449C53.6779 107.362 52.9736 111.877 52.9736 116.543C52.9736 123.466 55.321 130.841 60.3679 130.841C60.4853 130.841 60.6026 130.841 60.72 130.841C59.3116 130.54 58.1379 129.035 58.1379 127.078C58.1379 125.121 59.1942 123.616 60.72 123.315C60.6026 123.315 60.4853 123.315 60.3679 123.315C59.8984 123.014 58.8421 120.456 58.8421 116.543C58.8421 115.64 58.8421 114.586 58.9595 113.683C58.7247 111.275 58.1379 109.017 57.3163 107.211C56.7295 105.706 55.9079 104.352 55.0863 103.449Z" fill="#39B66A"/>
<path d="M60.7198 123.315C59.3114 123.616 58.1377 125.121 58.1377 127.078C58.1377 129.034 59.3114 130.539 60.7198 130.84C62.1282 130.539 63.3019 129.034 63.3019 127.078C63.3019 125.121 62.1282 123.616 60.7198 123.315Z" fill="#39B66A"/>
<path d="M56.8465 99.3848C56.1423 100.589 55.5554 101.943 55.0859 103.448C55.9075 104.352 56.7291 105.706 57.3159 107.211C58.1375 109.017 58.7244 111.275 58.9591 113.683C59.1939 110.823 59.7807 108.114 60.7197 105.706C59.7807 103.147 58.3723 101.04 56.8465 99.3848ZM63.7713 91.2576C62.7149 92.0101 61.6586 92.9131 60.7197 93.8162C62.1281 95.3212 63.5365 97.2778 64.5929 99.3848C65.5318 98.4818 66.5881 97.7293 67.6444 97.1273C67.175 96.2242 66.7055 95.3212 66.236 94.5687C65.5318 93.3646 64.7102 92.3111 63.7713 91.2576Z" fill="white"/>
<path d="M60.7194 93.8162C59.3109 95.3212 57.9025 97.2778 56.8462 99.3848C58.372 101.04 59.7804 103.147 60.7194 105.706C61.6583 103.147 63.0668 100.89 64.5926 99.3848C63.5363 97.2778 62.2452 95.3212 60.7194 93.8162Z" fill="#39B66A"/>
<path d="M81.1422 130.84C79.4991 130.84 78.208 129.185 78.208 127.078C78.208 125.121 79.3817 123.465 80.7901 123.315C81.377 122.713 82.6681 119.703 82.6681 116.542C82.6681 114.435 83.9591 112.78 85.6023 112.78C87.2455 112.78 88.5365 114.435 88.5365 116.542C88.5365 123.315 85.4849 130.84 81.1422 130.84Z" fill="#39B66A"/>
</g>
<defs>
<clipPath id="clip0">
<rect width="141.73" height="141.73" fill="white"/>
</clipPath>
</defs>
</svg>
